<svg xmlns="http://www.w3.org/2000/svg" fill="none" viewBox="0 0 24 24"><path fill="#191919" fill-rule="evenodd" d="M11.436 8.406C11.436 6.956 10.4 6 8.896 6c-1.402 0-2.46 1.047-2.46 2.406 0 1.413 1.11 2.594 2.46 2.594 1.445 0 2.54-1.09 2.54-2.594zm2 0c0 2.611-1.993 4.594-4.54 4.594-2.484 0-4.46-2.104-4.46-4.594C4.436 5.937 6.395 4 8.896 4c2.572 0 4.54 1.813 4.54 4.406zM3.373 19.351L1.5 18.65a16.48 16.48 0 011.002-2.14C3.382 14.945 4.268 14 5.436 14h7c1.169 0 2.054.944 2.934 2.51a16.731 16.731 0 011.003 2.139l-1.873.702c-.04-.11-.122-.311-.238-.575a14.57 14.57 0 00-.635-1.286c-.28-.498-.56-.905-.819-1.181-.21-.224-.353-.309-.372-.309h-7c-.019 0-.161.085-.372.309-.259.276-.538.683-.819 1.181a14.528 14.528 0 00-.872 1.861zM16.436 16v-2h2c1.169 0 2.054.944 2.934 2.51a16.731 16.731 0 011.003 2.139l-1.873.702c-.04-.11-.122-.311-.238-.575a14.57 14.57 0 00-.635-1.286c-.28-.498-.56-.905-.819-1.181-.21-.224-.353-.309-.372-.309h-2zm-2-10V4h1c2.152 0 4 2.053 4 4.5s-1.848 4.5-4 4.5h-1v-2h1c.998 0 2-1.114 2-2.5s-1.002-2.5-2-2.5h-1z" clip-rule="evenodd"></path></svg>